<svg width="929" height="540" viewBox="0 0 929 540" fill="none" xmlns="http://www.w3.org/2000/svg">
<g clip-path="url(#clip0_103_1499)">
<g clip-path="url(#clip1_103_1499)">
<g clip-path="url(#clip2_103_1499)">
<mask id="mask0_103_1499" style="mask-type:luminance" maskUnits="userSpaceOnUse" x="0" y="0" width="929" height="540">
<path d="M928.987 0H0.00292969V539.41H928.987V0Z" fill="white"/>
</mask>
<g mask="url(#mask0_103_1499)">
<path d="M45.9531 511.441C45.9531 395.403 92.1017 284.117 174.247 202.066C256.391 120.015 367.804 73.9192 483.974 73.9192C600.144 73.9192 711.557 120.015 793.701 202.066C875.846 284.117 921.995 395.403 921.995 511.441H45.9531Z" fill="#E0E0E0"/>
<path d="M700.354 27.47H183.303V414.51H700.354V27.47Z" fill="#E0E0E0" stroke="#0F0F0F" stroke-width="2.99672"/>
<path d="M181.804 80.8491H702.339" stroke="#0F0F0F" stroke-width="2.99672"/>
<path d="M208.782 62.9683C213.208 62.9683 216.796 59.4079 216.796 55.016C216.796 50.6241 213.208 47.0637 208.782 47.0637C204.356 47.0637 200.768 50.6241 200.768 55.016C200.768 59.4079 204.356 62.9683 208.782 62.9683Z" fill="#5F28FD"/>
<path d="M238.319 62.9683C242.745 62.9683 246.333 59.4079 246.333 55.016C246.333 50.6241 242.745 47.0637 238.319 47.0637C233.893 47.0637 230.305 50.6241 230.305 55.016C230.305 59.4079 233.893 62.9683 238.319 62.9683Z" fill="#0F0F0F"/>
<path d="M267.861 62.9683C272.287 62.9683 275.875 59.4079 275.875 55.016C275.875 50.6241 272.287 47.0637 267.861 47.0637C263.435 47.0637 259.847 50.6241 259.847 55.016C259.847 59.4079 263.435 62.9683 267.861 62.9683Z" fill="#0F0F0F"/>
<path d="M718.218 25.9717H699.238V415.546H718.218V25.9717Z" fill="#0F0F0F"/>
<path d="M331.18 292.796H552.477" stroke="#0F0F0F" stroke-width="2.99672"/>
<path d="M367.141 321.841H516.516" stroke="#0F0F0F" stroke-width="2.99672"/>
<path d="M417.311 227.842C417.311 227.842 427.118 218.035 441.829 218.035C456.541 218.035 466.348 227.842 466.348 227.842" stroke="#0F0F0F" stroke-width="2.99672" stroke-linecap="round" stroke-linejoin="round"/>
<path d="M441.829 151.834C412.035 151.834 387.888 175.983 387.888 205.776C387.888 235.568 412.035 259.717 441.829 259.717C471.621 259.717 495.77 235.568 495.77 205.776C495.77 175.983 471.621 151.834 441.829 151.834Z" stroke="#0F0F0F" stroke-width="2.99672"/>
<path d="M461.443 188.612C459.493 188.612 457.622 189.387 456.242 190.766C454.863 192.146 454.087 194.017 454.087 195.968C454.087 197.919 454.863 199.79 456.242 201.169C457.622 202.549 459.493 203.324 461.443 203.324C463.394 203.324 465.265 202.549 466.645 201.169C468.024 199.79 468.799 197.919 468.799 195.968C468.799 194.017 468.024 192.146 466.645 190.766C465.265 189.387 463.394 188.612 461.443 188.612ZM422.213 188.612C420.262 188.612 418.392 189.387 417.012 190.766C415.633 192.146 414.858 194.017 414.858 195.968C414.858 197.919 415.633 199.79 417.012 201.169C418.392 202.549 420.262 203.324 422.213 203.324C424.164 203.324 426.035 202.549 427.415 201.169C428.794 199.79 429.569 197.919 429.569 195.968C429.569 194.017 428.794 192.146 427.415 190.766C426.035 189.387 424.164 188.612 422.213 188.612Z" fill="#0F0F0F"/>
<path fill-rule="evenodd" clip-rule="evenodd" d="M627.279 427.852L564.698 365.273L573.842 356.13L636.422 418.709L627.279 427.852Z" fill="#0F0F0F"/>
<path fill-rule="evenodd" clip-rule="evenodd" d="M590.404 381.506C595.616 376.294 600.916 373.143 602.242 374.469L681.324 453.552C682.65 454.878 679.499 460.177 674.288 465.389C669.075 470.6 663.776 473.751 662.451 472.425L583.367 393.343C582.042 392.017 585.192 386.717 590.404 381.506Z" fill="#5F28FD"/>
<path d="M451.792 315.294C451.891 297.301 459.132 280.007 471.925 267.214C484.717 254.422 502.011 247.181 520.004 247.082C523.893 247.061 527.745 247.373 531.524 248.005C548.718 248.496 565.106 255.541 577.304 267.739C589.957 280.392 597.065 297.554 597.065 315.448C597.065 333.341 589.957 350.504 577.304 363.157C564.651 375.81 547.489 382.918 529.595 382.918C527.48 382.918 525.376 382.818 523.288 382.623C521.951 382.709 520.609 382.756 519.262 382.764C501.27 382.862 484.054 375.809 471.401 363.156C458.747 350.503 451.694 333.287 451.792 315.294Z" fill="#0F0F0F"/>
<path d="M475.065 270.359C463.107 282.317 456.333 298.481 456.235 315.293C456.137 332.106 462.721 348.191 474.54 360.01C486.36 371.829 502.444 378.414 519.257 378.315C536.069 378.217 552.232 371.444 564.19 359.486C576.148 347.528 582.922 331.365 583.02 314.552C583.119 297.739 576.534 281.654 564.715 269.835C552.896 258.017 536.811 251.432 519.999 251.53C503.185 251.629 487.023 258.401 475.065 270.359Z" fill="#E0E0E0"/>
<path d="M0.00292969 509.942H928.987" stroke="#0F0F0F" stroke-width="2.99672"/>
</g>
</g>
</g>
</g>
<defs>
<clipPath id="clip0_103_1499">
<rect width="929" height="539.41" fill="white"/>
</clipPath>
<clipPath id="clip1_103_1499">
<rect width="929" height="539.41" fill="white"/>
</clipPath>
<clipPath id="clip2_103_1499">
<rect width="928.984" height="539.41" fill="white" transform="translate(0.00292969)"/>
</clipPath>
</defs>
</svg>
