<svg width="24" height="30" viewBox="0 0 24 30" fill="none" xmlns="http://www.w3.org/2000/svg">
<path d="M8.57129 28.1003V24.5679C11.2482 24.9939 12.7068 24.9738 15.257 24.5679V28.1003L13.1558 29.1393H10.4815L8.57129 28.1003Z" fill="#5F28FD"/>
<path d="M15.2763 24.2791C17.8687 23.3962 22.049 20.4533 22.8539 18.0548C24.001 15.4882 24.2975 12.589 23.6961 9.82293C23.0947 7.05691 21.6304 4.58465 19.5381 2.80331C17.4459 1.02196 14.8474 0.034992 12.1603 0.000912998C9.47292 -0.033166 6.85269 0.887672 4.72063 2.61543C2.58855 4.34322 1.06839 6.77766 0.404298 9.52764C-0.25979 12.2776 -0.106315 15.16 0.868762 17.8047C2.07195 21.0681 6.16385 23.3962 8.60063 24.2791V19.46C7.15534 18.651 6.00943 17.3526 5.3471 15.7732C4.68477 14.1938 4.54442 12.4251 4.9486 10.7513C5.35281 9.07755 6.27806 7.59582 7.57588 6.5442C8.87346 5.49257 10.4681 4.93212 12.1037 4.95284C13.7396 4.97359 15.3212 5.57433 16.5945 6.65856C17.8679 7.74276 18.7591 9.24753 19.1253 10.9311C19.4912 12.6146 19.3106 14.3792 18.6128 15.9414C17.9147 17.5036 16.7397 18.7726 15.2763 19.5448V24.2791Z" fill="#5F28FD"/>
</svg>
