<svg width="445" height="682" viewBox="0 0 445 682" fill="none" xmlns="http://www.w3.org/2000/svg">
    <path fill-rule="evenodd" clip-rule="evenodd"
        d="M15.8479 598.401C18.1384 586.118 20.2379 573.802 22.1459 561.46C23.0516 555.6 23.9352 549.735 24.7295 543.861C25.2858 539.744 26.133 535.038 23.184 531.989C19.0344 527.699 15.265 524.026 14.757 517.88C14.2791 512.098 16.3383 505.794 17.6259 500.181C20.326 488.409 23.6874 476.784 27.4018 465.268C31.1752 453.568 35.3129 441.979 39.5102 430.411C43.4342 419.596 47.2064 408.683 52.3174 398.307C62.0172 378.615 78.4269 364.032 98.7071 354.295C103.751 351.873 114.039 343.228 119.308 341.293C124.153 339.513 124.135 344.71 128.903 342.752C132.715 341.187 136.264 339.101 138.398 335.606C140.715 331.811 146.526 326.504 147.41 322.087C149.285 312.725 147.254 304.756 154.291 297.709C160.538 291.452 168.934 287.165 177.622 284.864C196.734 279.802 222.222 283.341 233.753 300.206C239.261 308.259 241.185 317.994 248.617 324.567C255.106 330.306 253.654 334.23 262.059 337.187C262.535 337.355 275.438 334.727 275.914 334.895C285.108 333.027 293.896 338.257 302.332 341.293C314.908 345.817 326.881 351.705 338.13 358.704C360.812 372.817 380.239 391.142 396.255 411.88C412.403 432.788 424.932 456.223 433.854 480.717C436.02 486.666 437.966 492.688 439.683 498.768C440.644 502.171 441.67 505.701 440.5 509.185C439.544 512.035 437.415 514.157 434.916 515.867C431.527 518.186 424.731 519.693 424.864 524.355C424.965 527.901 426.231 531.632 426.849 535.135C427.585 539.307 428.19 543.504 428.794 547.694C431.544 566.768 433.685 585.95 434.632 605.186C435.563 624.126 436.337 643.453 434.953 662.387C434.862 663.636 434.47 664.782 433.837 665.751C434.428 665.965 434.473 667.01 433.738 667.158C433.224 667.262 432.71 667.365 432.195 667.469C431.126 668.237 429.792 668.708 428.257 668.754C427.217 668.786 426.177 668.83 425.138 668.881C414.171 671.058 403.206 673.114 392.096 674.671C378.591 676.564 365.046 678.107 351.459 679.362C323.541 681.939 295.842 681.084 267.886 679.695C239.974 678.308 212.078 677.983 184.137 678.673C156.171 679.364 128.216 680.52 100.244 680.992C68.993 681.52 37.7902 680.709 6.63 678.35C2.3577 678.027 -0.285583 674.799 0.557068 670.77C5.60553 646.628 11.3268 622.647 15.8479 598.401Z"
        fill="#E0E0E0" />
    <path fill-rule="evenodd" clip-rule="evenodd"
        d="M284.633 334.301C281.743 334.182 278.797 334.626 275.914 334.895C275.663 334.919 275.567 335.287 275.85 335.343C281.01 336.366 286.113 337.767 291.18 339.189L293.35 339.799C299.065 341.404 304.611 343.06 310.143 345.201C321.169 349.468 331.64 355.227 341.277 361.844C378.388 387.323 405.247 425.9 422.196 465.839C426.799 476.686 430.699 487.802 433.859 499.106C434.627 501.856 435.35 504.617 436.035 507.387C436.236 508.199 437.113 510.278 436.632 511.109C436.207 511.843 434.555 512.297 433.787 512.679L431.195 513.955C426.14 516.43 417.719 520.496 416.875 520.893L415.558 521.508C394.017 531.536 371.001 540.04 346.761 540.629L346.571 538.663C345.49 527.795 344.072 516.87 340.976 506.337C340.81 505.771 340.051 505.962 339.982 506.464C338.257 518.935 338.809 531.502 339.41 544.03C340.476 566.218 341.891 588.394 343.148 610.574C343.778 621.669 344.591 632.757 345.326 643.846C346.062 654.957 346.3 666.336 347.98 677.356C348.354 679.812 351.384 681.148 353.678 680.889C356.217 680.602 358.17 678.479 358.182 676.045C358.213 669.625 357.363 663.129 356.891 656.726C356.443 650.641 355.961 644.56 355.468 638.479C353.666 616.286 351.593 594.119 349.675 571.935C348.995 564.067 348.261 556.206 347.505 548.346C373.184 547.559 397.174 538.528 420.06 527.975C420.392 535.117 421.192 542.246 421.966 549.359C424.128 569.208 426.034 589.049 427.461 608.959C428.182 619.015 428.706 629.084 429.163 639.153C429.387 644.102 429.57 649.052 429.711 654.004C429.758 655.654 429.8 657.305 429.838 658.956L429.916 662.737C429.98 665.133 430.236 667.353 432.359 669.097C434.515 670.868 437.428 670.963 439.562 669.097C442.419 666.599 441.914 663.195 441.829 659.84C441.759 657.01 441.674 654.18 441.576 651.352C441.379 645.693 441.127 640.036 440.821 634.382C439.749 614.614 437.608 594.925 434.809 575.316L433.717 567.746C431.677 553.674 429.437 539.281 424.877 525.726C426.653 524.887 428.423 524.043 430.187 523.194C433.315 521.69 436.55 520.279 439.591 518.618C442.004 517.301 444.084 515.495 444.756 512.829C445.505 509.858 444.36 506.609 443.599 503.712L443.533 503.457C442.787 500.539 441.983 497.634 441.136 494.742C437.698 483.012 433.447 471.511 428.473 460.29C418.512 437.827 405.655 416.486 389.951 397.19C375.814 379.821 359.115 364.07 339.543 352.257C329.974 346.481 319.777 341.739 308.993 338.386C303.953 336.819 298.469 335.456 293.191 334.895C290.344 334.593 287.494 334.42 284.633 334.301ZM233.431 298.706C229.996 295.204 223.173 298.828 224.822 303.465C228.701 314.375 234.877 324.326 244.516 331.495C253.577 338.234 264.381 342.61 276.017 341.676C276.107 341.669 276.184 341.647 276.253 341.617L275.25 342.908C267.378 353.02 259.073 362.993 249.064 371.258C228.669 388.099 200.901 397.182 174.088 390.721C152.991 385.637 134.406 369.796 128.939 349.607C129.723 349.941 130.654 350.054 131.676 349.843C136.05 348.942 140.38 344.574 143.2 341.442C146.251 338.054 148.634 334.396 150.381 330.261C153.578 322.693 154.603 312.948 150.238 305.617C149.699 304.713 148.457 305.22 148.351 306.102L148.185 307.479C147.344 314.35 146.296 320.996 142.884 327.26C141.215 330.324 139.214 333.316 136.778 335.882C135.474 337.256 134.061 338.568 132.536 339.719C131.049 340.841 129.25 341.652 127.917 342.94L127.673 343.187L127.666 343.142C127.329 340.422 125.321 339.224 123.355 339.299C121.453 339.372 119.219 340.167 118.354 340.547L118.272 340.584C105.003 346.633 92.7829 354.516 81.2826 363.263C57.5 381.352 39.6806 404.999 31.0468 432.845C26.8092 446.512 24.3776 460.594 21.8109 474.611L20.2307 483.199C17.8349 496.139 15.1588 509.333 9.75058 521.37C8.35165 524.484 9.43011 527.404 12.8604 528.629C17.1434 530.158 21.4424 531.638 25.7483 533.101C23.634 541.714 22.3447 550.626 20.7606 559.281C17.3934 577.68 13.2677 595.962 9.7301 614.336C7.92151 623.731 6.28964 633.158 4.48276 642.554C3.61285 647.079 2.70486 651.597 1.82187 656.12C1.34628 658.559 0.915009 661.005 0.460999 663.447L0.382019 663.853C0.121948 665.141 -0.204834 666.474 0.168396 667.763C0.593994 669.233 1.80255 670.272 2.88156 671.326C3.76968 672.194 5.05322 672.2 6.14133 671.726L6.49924 671.569C8.44266 670.706 9.96509 669.845 10.6546 667.763C11.0909 666.445 11.2483 664.96 11.5336 663.602C12.0807 660.998 12.5995 658.391 13.0893 655.777C14.0689 650.547 15.0258 645.313 15.9599 640.075L16.8324 635.17C19.827 618.266 22.6708 601.259 24.1085 584.176C24.7462 576.597 25.4221 569.025 26.1042 561.451L26.6165 555.771C27.2642 548.581 28.0558 541.209 28.1677 533.922L30.7424 534.79L43.3057 539.008C46.4206 540.053 50.3867 542.195 53.739 541.806C55.38 541.615 56.6312 541.124 57.5971 540.233C56.4403 555.736 54.8743 571.213 52.7873 586.611C50.8884 600.621 48.7832 614.613 46.2968 628.541C45.0655 635.438 43.8001 642.328 42.4256 649.2C41.7386 652.637 41.0295 656.069 40.2988 659.497C39.9346 661.207 39.501 662.92 39.2169 664.644C38.8919 666.619 39.4647 667.834 40.6266 669.459C41.5807 670.793 43.4892 671.478 45.0365 670.557C47.0854 669.336 48.1542 668.279 48.757 666.055C49.3048 664.035 49.6378 661.927 50.0616 659.881C50.8441 656.105 51.6003 652.325 52.3305 648.539C53.8572 640.623 55.2647 632.687 56.5215 624.727C60.9507 596.686 63.761 568.41 65.1804 540.088C65.881 526.115 66.0974 512.129 65.973 498.141C65.9094 490.971 65.6628 483.781 65.1287 476.629C64.5877 469.389 63.4627 462.294 62.4581 455.125C62.4229 454.872 62.0479 454.858 62.032 455.125C61.5564 463.163 60.8109 471.193 60.4455 479.252C60.0966 486.943 59.9438 494.645 59.6665 502.338C59.3023 512.451 58.7972 522.57 58.1284 532.681C56.9176 531.424 55.0925 530.698 53.2663 530.982C50.6207 530.455 47.7729 529.136 45.2507 528.336L35.7424 525.32C30.7439 523.735 25.7455 522.16 20.7294 520.633C25.2141 506.306 28.2862 491.765 30.9095 477.012L32.0794 470.377C34.3952 457.317 36.8922 444.251 41.0869 431.604C45.4967 418.308 52.0958 405.946 60.8501 394.752C69.4794 383.719 79.9781 374.004 90.7875 364.918C100.042 357.14 109.942 350.116 119.381 342.552C119.282 343.053 119.261 343.605 119.348 344.211C121.354 358.159 129.017 371.149 139.695 380.81C161.147 400.219 192.902 404.245 220.359 395.144C246.919 386.34 270.401 365.49 278.697 339.689C278.839 339.248 278.216 339.072 277.966 339.397C277.506 339.996 277.044 340.595 276.58 341.194C276.612 340.956 276.482 340.697 276.172 340.583C266.493 337.034 256.987 332 249.731 324.879C246.195 321.408 243.108 317.476 240.672 313.235C239.505 311.203 238.456 309.1 237.62 306.926L237.407 306.363C236.394 303.64 235.547 300.863 233.431 298.706Z"
        fill="black" />
    <path fill-rule="evenodd" clip-rule="evenodd"
        d="M102.089 183.864C103.439 167.275 101.347 149.888 108.083 134.121C119.826 107.959 152.757 99.2365 178.287 89.2765C188.515 86.4067 222.93 86.0056 234.905 82.2073C262.009 73.6109 268.484 63.3684 290.021 79.7363C293.656 82.5323 295.93 85.5712 297.59 89.7233L297.521 89.7411C297.995 91.472 297.487 93.1992 296.42 94.5185C305.757 103.582 309.665 117.171 304.874 129.236C289.239 160.634 289.974 177.61 295.012 211.364C301.59 242.875 286.557 254.386 261.661 271.531C262.675 273.398 262.885 275.878 261.563 277.525C232.774 315.942 178.492 334.284 131.983 314.785C113.105 306.806 104.676 287.714 99.8667 270.487C94.2636 251.198 92.5419 230.872 97.1035 211.223C98.9433 202.135 101.34 193.114 102.089 183.864Z"
        fill="#E0E0E0" />
    <path fill-rule="evenodd" clip-rule="evenodd"
        d="M268.151 0.0744946C264.656 -0.423807 262.017 1.63506 260.762 4.53699L260.696 4.69325C260.293 5.68067 259.844 6.64111 259.361 7.58537C250.616 3.51158 238.138 4.55836 232.604 12.8084C228.655 18.7006 231.064 25.6935 232.553 31.9417L233.53 36.0587C231.641 37.2003 230.217 39.2447 230.283 41.3616L230.292 41.5246L230.689 47.2657C229.428 46.0516 228.274 44.7297 227.246 43.3214C226.536 42.0857 225.769 40.8717 224.945 39.6954C220.098 32.7727 209.217 38.7889 213.217 46.2027C213.984 47.6326 214.848 48.9869 215.774 50.2927C216.819 52.219 217.677 54.1992 218.337 56.2334C216.444 57.0158 214.99 58.7532 214.836 61.3755C214.479 67.4997 217.865 72.6095 223.252 75.8199C224.837 76.7642 226.473 76.9476 227.956 76.5969C228.218 76.9315 228.479 77.266 228.729 77.6059C226.581 79.2624 224.644 81.1509 222.979 83.2445C217.967 82.5322 212.927 82.1977 207.887 82.1869C201.728 79.3218 194.353 79.3811 187.733 80.4549C183.472 81.1455 179.381 82.4891 175.187 83.4549C170.767 84.4693 166.278 84.5071 161.806 85.1977C156.17 86.0664 151.226 88.5377 148.118 92.482C144.703 92.5791 141.112 93.9065 138.135 95.7086C131.203 99.9065 124.311 104.164 117.396 108.389C114.742 110.011 113.749 112.6 114.237 115.488L114.27 115.673L114.503 116.871L113.956 117.608C111.84 120.446 109.538 123.418 108.168 126.551C105.634 130.02 103.344 133.657 101.315 137.407C98.5823 142.447 96.3266 147.788 94.7981 153.27C94.4174 154.657 94.0367 156.055 93.7867 157.468C93.4287 159.465 93.9799 161.013 94.281 162.929C94.6561 165.357 94.7924 167.817 95.1902 170.251C95.4572 171.864 96.9005 172.657 98.4119 172.7C97.8437 176.807 97.4346 180.94 97.0425 185.041C96.4914 190.9 96.1163 196.776 95.7925 202.652C94.1219 204.956 90.7071 206.78 88.2411 207.411C84.8262 208.28 81.2465 207.336 78.0191 206.23C75.9906 205.534 74.3258 207.956 75.3145 209.575C78.4225 214.658 85.0705 214.636 90.1048 212.386C92.2355 211.437 94.1049 210.061 95.4913 208.269C95.4061 209.974 95.3152 211.679 95.2243 213.39L95.1396 214.939C94.1159 233.032 91.906 251.747 95.4857 269.662C101.685 300.693 128.727 324.321 161.761 326.155C179.095 327.118 193.531 322.256 200.709 319.544C207.887 316.832 205.097 311.301 200.114 312.882C191.53 315.605 175.76 319.663 161.647 317.911C128.385 313.782 100.179 297.994 103.077 229.998C103.488 220.355 104.753 210.708 105.026 201.066C105.287 191.64 105.191 182.208 105.628 172.787L105.774 169.572C105.945 165.817 106.127 162.043 106.424 158.283C106.781 156.826 107.077 155.348 107.514 153.918C108.702 150.028 110.253 146.245 112.179 142.635C112.606 142.943 113.083 143.164 113.6 143.251C117.526 143.92 121.208 143.731 124.884 142.177C126.6 141.459 128.112 140.504 129.521 139.322C130.191 138.767 130.64 138.227 130.993 137.666C132.771 137.693 134.55 137.186 135.663 135.972C136.933 134.588 137.145 133.159 136.647 131.836L136.595 131.704L136.72 131.66C138.22 135.346 141.209 138.589 144.487 140.779C149.669 144.254 156.153 145.258 162.369 145.349C169.233 145.447 176.471 144.443 183.244 143.418C185.034 143.148 186.813 142.84 188.557 142.425C188.625 142.49 188.693 142.565 188.767 142.63C194.58 147.912 202.757 149.272 210.132 146.256C214.393 144.513 217.967 141.707 221.126 138.491C221.172 140.175 221.263 141.858 221.416 143.526L221.48 144.188C221.794 147.293 222.4 150.587 224.871 152.828C228.865 156.459 234.661 155.002 239.269 152.639C239.263 152.752 239.263 152.871 239.263 152.99C238.019 157.004 236.769 161.024 235.519 165.044L235.25 165.9C234.341 168.755 233.344 171.613 233.07 174.6C232.547 180.308 236.547 185.947 243.23 184.032C246.735 183.03 249.542 180.232 252.237 177.99L253.934 176.596C249.542 190.231 246.497 204.352 246.213 218.58C246.196 219.352 246.894 219.935 247.667 219.962C249.474 220.032 251.417 219.692 253.236 219.007C253.338 219.001 253.44 218.996 253.548 218.98C256.65 218.554 259.531 217.491 262.071 215.92C261.486 217.685 261.224 219.579 261.378 221.559C261.418 222.039 262.207 222.206 262.321 221.678C263.787 214.83 272.225 209.656 279.498 210.967C287.305 212.375 293.055 218.753 294.464 226.01C295.976 233.807 293.084 242.824 287.725 248.84C285.259 251.613 282.015 253.928 278.163 254.511C276.401 254.775 274.572 254.683 272.861 254.209C272.134 254.004 271.452 253.718 270.759 253.448C269.748 253.059 268.566 253 267.611 252.59C265.446 251.667 263.27 253.561 264.367 255.671C265.321 257.511 266.179 258.752 267.764 259.701C266.48 261.191 265.316 263.263 264.884 263.818C262.679 266.646 260.44 269.317 257.929 271.901C255.372 274.524 252.582 276.919 249.633 279.137L248.394 280.067C245.553 282.206 243.08 284.189 241.076 287.258C239.496 289.68 241.542 292.966 244.502 292.928C253.764 292.804 260.497 285.078 265.293 278.328C265.975 277.362 266.617 276.342 267.213 275.295C267.429 275.624 267.668 275.932 267.935 276.212L267.407 277.561C265.838 281.533 272.594 284.128 274.555 280.421C275.981 277.734 277.634 275.176 279.475 272.759C280.56 272.613 281.623 271.988 282.214 271.178C283.708 269.122 285.384 267.045 286.799 264.854C287.583 264.148 288.39 263.468 289.214 262.804C289.453 263.004 289.697 263.203 289.93 263.414C290.964 265.653 292.243 267.698 293.828 269.624L294.168 270.035C297.205 273.67 301.161 277.39 306.056 278.279C307.55 278.549 308.988 276.784 307.664 275.657C304.237 272.732 300.186 270.741 297.027 267.477C295.47 265.868 294.041 264.097 292.812 262.241L292.532 261.811C292.328 261.493 292.118 261.174 291.902 260.851C293.328 259.928 294.754 259 296.18 258.072C300.106 261.257 305.219 262.714 309.562 265.353L309.993 265.621C313.92 268.113 318.056 262.599 314.908 259.572C311.438 256.248 308.542 252.283 305.468 248.588C306.913 246.06 307.597 243.07 307.853 240.049C307.955 239.193 308.034 238.338 308.113 237.482C310.317 237.514 312.533 236.797 314.408 235.561L315.118 235.081C317.397 235.771 319.789 236.106 322.079 236.046C327.465 235.895 329.67 230.052 326.301 226.356C322.863 222.579 316.846 221.753 312.079 223.588C311.925 223.512 311.766 223.431 311.613 223.35C311.84 222.358 311.789 221.457 311.531 220.666L311.606 220.184C312.654 218.656 313.343 216.912 313.605 215.069C313.812 213.61 313.77 212.163 313.414 210.722C313.296 210.242 313.05 209.745 312.862 209.245C313.249 208.316 313.477 207.356 313.547 206.39C313.656 206.267 313.764 206.142 313.866 206.006C316.232 202.852 315.754 199.052 313.502 196.499C313.492 196.337 313.476 196.175 313.453 196.013C313.585 195.732 313.706 195.447 313.816 195.16C316.016 193.053 317.63 190.517 317.329 187.375C317.153 185.527 316.353 183.863 315.142 182.619C315.357 182.016 315.377 181.317 315.117 180.734C317.049 175.853 316.805 169.974 315.414 164.515C315.721 163.684 315.88 162.783 315.846 161.828C315.687 157.776 311.993 154.053 307.618 154.101C307.091 154.106 306.598 154.171 306.124 154.266L306.118 154.17C305.951 152.954 305.598 151.83 305.084 150.821C305.337 150.734 305.571 150.61 305.776 150.444C308.58 151.864 311.546 152.95 314.656 153.69C316.944 154.234 319.286 151.765 317.865 149.727C317.205 148.781 316.477 147.931 315.693 147.155C316.808 147.161 317.94 147.233 319.084 147.373C321.141 147.626 323.437 146.294 324.772 144.492C326.431 146.024 328.096 147.551 329.761 149.078C333.977 152.957 340.347 150.103 341.011 144.988C342.267 144.67 343.438 144.13 344.466 143.358C351.114 146.099 358.268 147.605 365.58 147.891C370.831 148.096 373.899 142.29 371.444 138.189C369.797 135.437 367.751 132.966 365.393 130.819C369.052 131.882 372.831 132.648 376.689 133.139C378.774 133.403 381.723 131.763 382.558 129.945C385.752 122.952 385.479 115.662 381.803 108.858C381.661 108.588 381.501 108.329 381.348 108.07C380.967 107.169 380.553 106.279 380.104 105.405C384.627 100.926 385.019 94.268 382.581 88.6942C383.558 87.1888 383.933 85.3758 383.269 83.7355C381.376 79.0142 378.649 74.6544 375.206 70.9098C375.535 70.3055 375.825 69.6634 376.069 68.9727C378.007 63.3881 375.763 56.6489 371.234 52.7585C368.387 50.3089 365.115 48.8412 361.62 47.9024C360.148 45.4311 358.256 43.2027 356.052 41.3249C355.966 41.1469 355.881 40.9688 355.785 40.7908C352.353 34.6504 346.102 31.359 339.403 30.5982C339.142 28.1971 337.437 25.9039 334.96 25.1593C334.278 23.0819 333.261 21.0963 331.863 19.2941C329.664 16.456 326.011 15.1178 322.568 16.9794C320.681 17.9992 318.874 19.17 317.181 20.465C316.42 20.1263 315.558 19.9072 314.586 19.8373L314.34 19.8229L308.738 19.5531C306.391 18.5657 304.05 17.5297 301.703 16.5207C300.294 15.4146 298.72 14.4919 297.004 13.8067C295.061 13.0351 293.072 12.598 291.078 12.4523C289.458 11.9505 287.828 11.5081 286.169 11.1627C282.271 10.3534 278.191 9.90014 274.145 9.93791C274.063 8.94355 274.022 7.9373 274.029 6.91916L274.037 6.4091C274.128 3.14467 271.384 0.538528 268.151 0.0744946ZM272.077 261.255C272.634 261.369 273.196 261.46 273.759 261.525C273.589 261.924 273.418 262.324 273.253 262.723C272.799 262.966 272.339 263.198 271.878 263.414C272.015 262.68 272.094 261.941 272.077 261.255ZM301.27 253.018L301.647 253.678C301.709 253.786 301.769 253.893 301.828 253.998C301.027 253.939 300.22 253.955 299.425 254.041L299.427 253.961C299.529 253.928 299.632 253.898 299.729 253.852C300.278 253.602 300.788 253.322 301.27 253.018ZM285.492 222.881C280.465 223.159 276.206 223.891 271.635 225.979L271.242 226.162C267.202 228.066 260.52 231.584 261.082 236.629C261.242 238.065 262.338 239.575 264.065 239.462C268.799 239.154 271.503 234.622 274.708 231.795C277.941 228.946 281.913 226.016 285.828 224.057C286.381 223.781 286.163 222.909 285.561 222.881L285.492 222.881ZM308.289 156.411C309.493 156.449 309.09 157.56 308.47 156.632C308.419 156.556 308.357 156.481 308.289 156.411ZM243.266 82.2074C254.674 82.4923 266.156 88.889 274.702 95.3547C282.137 100.98 288.557 107.67 294.242 114.882C295.705 118.473 296.96 122.14 298.021 125.833C298.72 128.272 299.158 130.738 299.743 133.198L299.925 133.953C300.384 134.768 300.726 135.646 300.975 136.553C299.939 137.54 298.595 138.246 297.116 138.581C296.639 138.689 296.243 138.923 295.93 139.232C294.739 137.345 293.698 135.353 293.092 133.241L293.07 133.143C290.781 129.583 288.294 126.133 285.629 122.801C278.276 113.601 270.179 105.216 260.446 98.2392C253.065 92.9514 244.815 88.8075 236.042 86.115C238.189 84.4698 240.628 83.1684 243.266 82.2074Z"
        fill="black" />
    <path fill-rule="evenodd" clip-rule="evenodd"
        d="M154.316 282.698C158.135 281.218 161.543 278.75 164.035 275.597C164.901 274.501 165.126 273.343 164.944 272.285C164.74 271.094 163.998 270.015 162.987 269.292C161.972 268.566 160.703 268.208 159.476 268.39C158.41 268.549 157.349 269.103 156.509 270.253L156.333 270.483C154.852 272.386 152.922 273.947 150.722 274.954C148.603 275.924 146.232 276.376 143.778 276.113C139.105 275.612 135.885 273.212 132.461 269.953C132.037 269.542 131.612 269.117 131.186 268.686C130.916 268.295 130.542 268.044 130.127 267.912C129.666 267.766 129.145 267.774 128.667 267.933C128.207 268.085 127.795 268.375 127.519 268.76C127.256 269.125 127.107 269.578 127.156 270.097C127.469 273.475 129.328 276.489 131.97 278.855C134.903 281.484 138.791 283.302 142.452 283.94C146.485 284.643 150.594 284.139 154.316 282.698ZM140.549 230.597C136.259 233.074 129.721 238.849 134.337 244.989C139.77 250.402 147.593 244.195 151.448 241.388C155.022 239.212 159.038 244.808 155.722 247.348C127.866 266.932 116.562 231.244 138.379 227.685C140.781 227.293 141.674 229.831 140.549 230.597ZM190.467 207.816C189.992 202.228 181.03 200.959 180.139 206.488C179.341 211.442 180.28 215.992 182.63 220.451C184.875 224.712 190.517 222.724 190.944 218.845C191.516 213.644 190.761 211.292 190.467 207.816ZM122.246 205.342C120.997 203.788 119.193 202.727 117.031 203.326C110.278 205.2 112.268 214.305 114.64 218.736C115.929 221.143 120.094 221.753 121.977 219.634C125.045 216.179 126.514 209.278 122.614 205.874C122.508 205.698 122.39 205.521 122.246 205.342ZM182.725 183.364L181.658 183.187C178.358 182.645 174.255 182.124 171.921 184.644C170.683 185.98 170.256 188.463 171.921 189.742C174.848 191.992 178.084 191.12 181.593 191.31C184.484 191.468 187.262 191.922 190.047 192.678C196.156 194.336 201.134 197.363 206.352 200.687C207.037 201.123 207.736 200.291 207.409 199.683C204.397 194.081 198.56 189.479 192.713 186.674C189.592 185.176 186.177 183.934 182.725 183.364ZM128.402 180.855L127.586 181.013C118.7 182.777 107.157 186.3 102.949 194.588C102.789 195.76 102.958 196.011 103.096 196.175L103.142 196.229C103.255 196.37 103.346 196.563 103.881 196.722C104.029 196.689 104.179 196.653 104.331 196.615C106.259 196.135 107.785 195.474 109.263 194.788L110.864 194.039C112.723 193.173 114.597 192.34 116.584 191.724C120.824 190.411 125.185 189.486 129.614 188.992C130.574 188.885 131.498 188.577 132.228 188.05C132.92 187.549 133.449 186.856 133.69 185.935C134.002 184.743 133.912 183.841 133.239 182.766C132.732 181.958 132.008 181.398 131.176 181.077C130.328 180.749 129.362 180.672 128.402 180.855Z"
        fill="black" />
    <path fill-rule="evenodd" clip-rule="evenodd"
        d="M128.515 290.999C133.807 286.522 139.738 277.522 147.34 284.643C149.22 286.655 149.982 291.166 152.857 292.051C156.675 293.227 160.459 289.391 161.761 286.445C167.085 270.075 145.076 265.586 132.538 268.23C126.413 270.619 121.901 280.234 121.628 285.252C121.452 288.624 124.458 293.583 128.515 290.999ZM88.5932 265.768C88.6449 265.551 88.717 265.354 88.804 265.176C91.1444 264.336 92.9962 265.192 94.1405 266.793C94.103 267.19 93.978 267.593 93.899 267.988C94.782 269.754 95.5786 271.94 96.7753 273.467C97.0116 273.484 97.2565 273.46 97.4918 273.395C117.329 275.363 107.644 255.653 127.765 250.757C143.318 248.32 171.43 251.112 178.767 266.485C184.553 291.04 213.977 273.93 223.637 261.16C233.945 249.538 240.61 235.336 247.036 221.555C248.394 218.639 252.632 220.724 252.172 223.523C258.112 234.838 257.914 248.43 259.385 260.826C261.887 285.558 264.326 320.24 240.128 335.341C208.6 369.182 129.871 381.124 93.507 350.03C80.919 324.33 82.4708 292.977 88.5932 265.768Z"
        fill="black" />
    <path fill-rule="evenodd" clip-rule="evenodd"
        d="M92.6391 235.427C96.4648 240.307 103.557 241.862 110.099 241.325C124.208 240.035 128.648 224.819 129.111 212.992C119.65 215.519 129.911 197.619 97.5694 195.651C86.1684 194.749 89.3117 201.287 84.2746 206.065C84.378 216.091 86.1354 226.985 92.6391 235.427ZM159.841 223.906C168.171 260.949 213.785 252.138 218.577 218.746C214.152 215.78 215.317 208.458 209.821 205.804C201.109 200.519 190.219 200.745 180.326 200.869C167.68 201.694 164.077 206.668 157.581 212.095C157.894 215.72 158.795 220.016 159.841 223.906ZM74.5697 189.516C75.0373 189.442 75.5055 189.372 75.9737 189.307C76.3391 189.11 76.7681 188.958 77.267 188.867C78.4062 188.593 79.5375 188.408 80.6671 188.308C96.879 184.843 134.384 189.762 135.932 202.9C141.095 204.536 145.562 203.071 151.546 203.217C156.1 185.138 234.844 187.69 238.631 198.589C238.645 198.585 238.659 198.582 238.674 198.578C242.313 197.509 247.677 197.766 251.842 197.597C260.735 197.42 269.638 198.173 278.339 199.954C294.632 202.413 316.869 205.291 305.537 224.612C305.535 224.616 305.533 224.619 305.53 224.623C303.577 226.524 300.261 224.991 300.138 222.418C303.948 213.265 295.343 212.166 288.722 209.535C272.248 203.915 255.476 203.136 238.438 204.874C237.156 206.307 235.211 207.557 233.155 208.211C221.764 210.007 227.767 218.031 220.566 219.198C221.889 247.171 186.126 262.44 165.404 244.052C157.131 236.37 155.158 224.991 153.24 214.734C152.226 214.518 151.581 213.991 151.204 213.294C148.765 210.982 147.232 208.846 142.409 208.211C137.586 207.576 133.872 208.85 133.37 209.24C133.243 209.483 133.108 209.726 132.95 209.968C132.729 210.33 132.429 210.619 132.088 210.846C136.851 238.701 114.08 256.317 91.0907 241.87C81.1017 232.947 78.9909 219.286 78.5738 207.093C77.2198 206.317 76.3624 204.813 76.8311 202.923C77.4772 200.316 75.9623 198.06 73.5498 196.927C70.415 195.455 70.9696 190.082 74.5697 189.516Z"
        fill="black" />
</svg>